<?xml version="1.0" standalone="no"?>
<!DOCTYPE svg PUBLIC "-//W3C//DTD SVG 20010904//EN"
 "http://www.w3.org/TR/2001/REC-SVG-20010904/DTD/svg10.dtd">
<svg version="1.0" xmlns="http://www.w3.org/2000/svg"
 width="423.000000pt" height="254.000000pt" viewBox="0 0 423.000000 254.000000"
 preserveAspectRatio="xMidYMid meet">

<g transform="translate(0.000000,254.000000) scale(0.100000,-0.100000)"
fill="#000000" stroke="none">
<path d="M1150 1872 c-71 -12 -93 -12 -183 4 -28 5 -43 2 -55 -9 -18 -17 -69
-28 -138 -30 -50 -2 -42 -22 9 -22 20 0 37 -4 37 -10 0 -6 4 -5 8 1 12 19 55
-2 48 -23 -3 -10 -15 -54 -27 -98 -25 -96 -24 -95 -54 -95 -63 0 -201 -51
-190 -70 3 -6 -1 -7 -9 -4 -9 3 -16 2 -16 -3 0 -6 -9 -21 -21 -34 -12 -14 -19
-33 -16 -46 2 -12 0 -20 -4 -17 -14 8 -11 -4 17 -61 26 -57 61 -89 109 -101
l29 -7 -37 37 c-72 72 -45 189 53 232 22 10 40 22 40 27 0 4 15 7 33 5 19 -2
31 -8 30 -15 -37 -185 -61 -254 -96 -271 -15 -7 -17 -11 -6 -11 9 -1 32 14 53
32 31 27 43 49 75 151 21 65 46 125 54 134 18 17 147 30 147 14 0 -5 -9 -29
-20 -53 -33 -75 -18 -209 25 -226 21 -8 56 18 96 71 18 25 38 44 43 43 4 -2 9
-24 10 -50 4 -90 39 -86 85 9 17 36 35 63 40 59 6 -3 10 -28 9 -56 0 -28 2
-53 5 -56 9 -8 48 8 42 18 -4 5 -2 9 2 9 5 0 19 20 31 45 12 25 26 45 32 45 6
0 10 -26 10 -59 0 -33 4 -62 9 -66 13 -7 59 38 104 103 49 69 47 77 -3 14 -41
-51 -70 -71 -70 -49 0 26 33 123 49 147 24 34 36 57 26 48 -4 -4 -14 -3 -21 3
-31 26 -50 4 -129 -145 -32 -59 -39 -67 -47 -52 -7 12 -7 21 1 29 6 6 11 24
11 39 0 15 5 28 10 28 6 0 10 6 10 13 0 7 11 29 25 49 l25 38 -24 6 c-13 3
-33 1 -44 -5 -23 -12 -69 -90 -102 -173 -12 -32 -26 -58 -31 -58 -30 0 26 196
67 238 19 19 13 36 -15 40 -29 5 -53 -27 -80 -103 -25 -69 -103 -163 -140
-167 -31 -4 -46 40 -24 71 8 12 10 21 4 21 -13 0 14 78 37 108 12 15 24 21 35
16 24 -9 12 -52 -24 -85 -16 -14 -29 -29 -29 -33 0 -14 83 58 101 88 l19 31
-25 23 c-27 23 -79 30 -90 12 -7 -12 -154 -13 -173 -2 -10 7 -8 19 8 56 11 26
20 54 20 62 0 8 4 22 9 32 5 9 12 25 15 35 5 15 19 17 98 17 109 0 162 12 183
43 28 40 27 41 -95 19z m-35 -522 c-3 -5 -12 -10 -18 -10 -7 0 -6 4 3 10 19
12 23 12 15 0z"/>
<path d="M1887 1756 c-8 -8 -20 -28 -27 -45 -8 -19 -20 -31 -32 -31 -21 0 -38
-32 -20 -38 18 -6 15 -25 -12 -84 -38 -85 -58 -160 -54 -208 3 -41 6 -45 30
-48 30 -4 79 40 111 99 16 28 10 25 -32 -21 -61 -65 -76 -60 -57 20 11 48 26
89 79 213 7 15 16 27 22 28 45 4 58 8 66 20 13 20 11 29 -5 23 -22 -9 -29 15
-12 41 9 13 16 29 16 35 0 15 -56 12 -73 -4z"/>
<path d="M2294 1762 c-17 -2 -30 -23 -58 -90 -19 -48 -41 -103 -47 -122 -11
-33 -64 -111 -81 -118 -4 -2 -8 -8 -8 -14 0 -21 -73 -70 -93 -63 -32 13 -31
85 2 85 13 0 13 2 2 9 -9 6 -11 18 -7 38 9 39 59 99 74 89 20 -12 13 -40 -20
-80 -23 -28 -26 -36 -11 -28 27 15 93 89 93 105 0 16 -51 47 -78 47 -28 0 -82
-48 -99 -87 -7 -19 -22 -42 -33 -53 -11 -11 -20 -26 -20 -32 0 -9 3 -8 10 2
13 21 20 9 25 -45 3 -27 12 -59 20 -72 30 -44 59 -28 151 81 l31 37 -1 -35 c0
-20 -4 -36 -8 -36 -5 0 -8 -16 -8 -35 0 -28 4 -35 20 -35 11 0 20 5 20 11 0 5
-5 7 -11 4 -7 -5 -7 -2 0 11 5 11 12 30 15 44 14 64 35 63 56 -2 6 -21 16 -38
21 -38 5 0 9 -7 9 -15 0 -40 55 -3 86 58 21 39 31 34 38 -23 12 -87 40 -79 80
25 15 41 35 80 43 87 13 11 14 3 10 -57 -3 -37 -3 -74 0 -82 12 -31 44 -11 94
62 29 41 54 73 57 70 2 -2 4 -33 3 -69 -1 -58 2 -67 25 -85 33 -26 74 -13 111
36 14 19 39 41 54 49 16 8 34 24 40 37 11 20 11 21 -5 8 -9 -8 -19 -12 -21 -9
-3 3 -1 36 5 74 11 82 3 94 -70 94 -50 0 -77 -18 -113 -72 -24 -38 -118 -138
-129 -138 -23 0 14 114 51 162 24 30 19 37 -23 33 -37 -4 -71 -39 -110 -111
-40 -74 -61 -83 -39 -17 9 26 22 57 30 68 7 11 13 27 13 36 0 9 7 22 15 29 25
20 18 40 -14 40 -34 0 -50 -21 -79 -107 -22 -66 -86 -153 -112 -153 -23 1 -72
74 -58 88 7 7 16 12 21 12 12 0 99 60 115 78 17 23 15 38 -10 62 -27 25 -30
25 -59 1 -23 -19 -23 -20 -2 -15 15 4 25 0 32 -14 9 -17 4 -26 -41 -66 -48
-42 -88 -59 -88 -37 0 5 16 32 35 59 19 28 31 54 26 57 -5 3 10 41 35 84 24
43 44 81 44 84 0 6 -15 5 -56 -1z m513 -317 c-23 -66 -67 -58 -67 13 0 40 22
85 52 107 23 15 23 15 26 -32 1 -27 -3 -66 -11 -88z m-48 -69 c15 -18 -5 -56
-30 -56 -22 0 -30 23 -23 60 5 24 10 28 24 20 9 -5 22 -16 29 -24z"/>
<path d="M3047 1747 c-21 -34 -43 -87 -62 -147 -9 -30 -27 -76 -40 -102 -13
-27 -20 -48 -15 -48 4 0 6 -29 6 -64 -1 -38 4 -70 11 -77 19 -19 56 12 95 76
41 69 56 71 53 8 -4 -102 69 -132 130 -55 11 14 29 32 39 41 35 29 81 74 63
61 -25 -18 -43 0 -28 28 12 23 12 90 -1 115 -7 13 -21 17 -60 17 -45 0 -54 -4
-84 -36 -19 -19 -37 -46 -40 -60 -3 -13 -9 -24 -13 -24 -8 0 -91 -106 -91
-117 0 -5 -9 -9 -21 -10 -19 -2 -21 2 -16 47 6 55 18 83 56 124 14 16 20 26
14 22 -19 -11 -16 14 9 75 25 63 48 94 48 66 0 -10 5 -15 10 -12 14 9 12 48
-4 70 -19 26 -43 27 -59 2z m200 -189 c17 -23 -7 -137 -33 -159 -19 -15 -54
15 -54 46 0 37 50 125 70 125 4 0 12 -6 17 -12z m-67 -173 l24 -25 -20 -21
c-30 -30 -54 -16 -54 32 0 46 16 51 50 14z"/>
<path d="M3480 1741 c-13 -25 -13 -58 0 -66 22 -14 63 44 53 73 -8 19 -41 14
-53 -7z"/>
<path d="M3615 1736 c-18 -28 -10 -56 16 -56 21 0 44 44 35 67 -8 21 -34 15
-51 -11z"/>
<path d="M3086 1613 c-6 -14 -5 -15 5 -6 7 7 10 15 7 18 -3 3 -9 -2 -12 -12z"/>
<path d="M3562 1617 c-15 -19 -49 -99 -57 -134 -11 -52 -8 -164 4 -176 11 -11
45 18 91 78 13 17 11 17 -14 -3 -66 -51 -63 27 7 167 18 36 32 67 32 70 0 11
-54 9 -63 -2z"/>
<path d="M3448 1612 c-16 -3 -22 -14 -19 -34 0 -5 -3 -8 -8 -8 -5 0 -13 -10
-16 -22 -4 -13 -19 -38 -33 -57 -14 -19 -20 -31 -12 -26 13 8 12 -3 -5 -100
-17 -102 -35 -239 -30 -243 16 -16 38 37 69 163 40 160 68 244 96 292 11 19
20 36 20 37 0 5 -41 3 -62 -2z"/>
<path d="M3070 679 c0 -5 5 -7 10 -4 6 3 10 8 10 11 0 2 -4 4 -10 4 -5 0 -10
-5 -10 -11z"/>
<path d="M2600 669 c0 -5 5 -7 10 -4 6 3 10 8 10 11 0 2 -4 4 -10 4 -5 0 -10
-5 -10 -11z"/>
<path d="M1581 614 c0 -11 3 -14 6 -6 3 7 2 16 -1 19 -3 4 -6 -2 -5 -13z"/>
<path d="M1946 595 c-9 -26 -7 -32 5 -12 6 10 9 21 6 23 -2 3 -7 -2 -11 -11z"/>
</g>
</svg>
